<svg xmlns="http://www.w3.org/2000/svg" xmlns:xlink="http://www.w3.org/1999/xlink" class="" app-context="doc-2d" x="0px" y="0px" width="595.2755905512" height="841.8897637795" jvs-fullPath="gdrive/banner.svg"><title/><desc/><defs><link xmlns="http://www.w3.org/1999/xhtml" rel="stylesheet" type="text/css" href="https://fonts.googleapis.com/css?family=Bowlby+One+SC:regular&amp;subset=latin"></link><link xmlns="http://www.w3.org/1999/xhtml" rel="stylesheet" type="text/css" href="https://fonts.googleapis.com/css?family=Krona+One:regular&amp;subset=latin"></link></defs><g id="jvs-guides" transform="matrix(1 0 0 1 0 0)"/><g id="jvs-content" enable-background="new"><g transform="matrix(1,0,0,1,0,0)" name="Layer" jvs-layer-color="#fb0094" class="jvs-layer selected"><title id="title4160">Mocha Logo</title><metadata id="metadata32"><rdf:RDF xmlns:rdf="http://www.w3.org/1999/02/22-rdf-syntax-ns#"><cc:Work xmlns:cc="http://creativecommons.org/ns#" rdf:about=""><dc:format xmlns:dc="http://purl.org/dc/elements/1.1/">image/svg+xml</dc:format><dc:type xmlns:dc="http://purl.org/dc/elements/1.1/" rdf:resource="http://purl.org/dc/dcmitype/StillImage"/><dc:title xmlns:dc="http://purl.org/dc/elements/1.1/">Mocha Logo</dc:title><dc:date xmlns:dc="http://purl.org/dc/elements/1.1/">08-21-2015</dc:date><dc:creator xmlns:dc="http://purl.org/dc/elements/1.1/"><cc:Agent><dc:title>Dick DeLeon &lt;ddeleon@decipherinc.com&gt;</dc:title></cc:Agent></dc:creator><dc:rights xmlns:dc="http://purl.org/dc/elements/1.1/"><cc:Agent><dc:title>CC BY-SA 4.0</dc:title></cc:Agent></dc:rights><dc:subject xmlns:dc="http://purl.org/dc/elements/1.1/"><rdf:Bag><rdf:li>mocha</rdf:li><rdf:li>mochajs</rdf:li></rdf:Bag></dc:subject><dc:contributor xmlns:dc="http://purl.org/dc/elements/1.1/"><cc:Agent><dc:title>Christopher Hiller &lt;boneskull@boneskull.com&gt;</dc:title></cc:Agent></dc:contributor><cc:license rdf:resource="http://creativecommons.org/licenses/by-sa/3.0/"/></cc:Work><cc:License xmlns:cc="http://creativecommons.org/ns#" rdf:about="http://creativecommons.org/licenses/by-sa/3.0/"><cc:permits rdf:resource="http://creativecommons.org/ns#Reproduction"/><cc:permits rdf:resource="http://creativecommons.org/ns#Distribution"/><cc:requires rdf:resource="http://creativecommons.org/ns#Notice"/><cc:requires rdf:resource="http://creativecommons.org/ns#Attribution"/><cc:permits rdf:resource="http://creativecommons.org/ns#DerivativeWorks"/><cc:requires rdf:resource="http://creativecommons.org/ns#ShareAlike"/></cc:License></rdf:RDF></metadata><sodipodi:namedview xmlns:sodipodi="http://sodipodi.sourceforge.net/DTD/sodipodi-0.dtd" pagecolor="#ffffff" bordercolor="#666666" borderopacity="1" objecttolerance="10" gridtolerance="10" guidetolerance="10" xmlns:inkscape="http://www.inkscape.org/namespaces/inkscape" inkscape:pageopacity="0" inkscape:pageshadow="2" inkscape:window-width="1920" inkscape:window-height="1031" id="namedview28" showgrid="false" fit-margin-top="5" fit-margin-left="5" fit-margin-right="5" fit-margin-bottom="5" inkscape:zoom="1" inkscape:cx="96" inkscape:cy="98.137283" inkscape:window-x="1360" inkscape:window-y="23" inkscape:window-maximized="0" inkscape:current-layer="Layer_1"/><path id="XMLID_229_" d="M 169.47386 143.90113 L 100.77104 183.59611 C 97.812995 185.31367 94.187012 185.31367 91.228974 183.59611 L 22.52614 143.90113 C 19.568102000000003 142.18356 17.755110000000002 139.03467999999998 17.755110000000002 135.69495999999998 L 17.755110000000002 56.30502099999998 C 17.755110000000002 52.86987899999998 19.568102000000003 49.81641999999998 22.52614 48.09884899999998 L 91.228974 8.403878 C 94.187012 6.686307000000001 97.812995 6.686307000000001 100.77103 8.403878 L 169.47385 48.098849 C 172.43189 49.81642 174.24489 52.9653 174.24489 56.305021 L 174.24489 135.69496 C 174.14949 139.03468 172.33647 142.18356 169.47385 143.90113000000002 Z" xmlns:inkscape="http://www.inkscape.org/namespaces/inkscape" inkscape:connector-curvature="0" style="clip-rule: evenodd; fill-rule: evenodd;" fill="rgb(22,145,47)" transform="matrix(1 0 0 1 0 0)" fill-opacity="1"/><path id="XMLID_262_" d="M 95.904583 22.049024 L 95.904583 22.049024 C 96.85879 22.049024 97.717575 22.335286 98.576364 22.812389 L 157.92797 57.068385000000006 C 159.55013 58.022591000000006 160.59974 59.83558300000001 160.59974 61.743995000000005 L 160.59974 130.25598 C 160.59974 132.1644 159.55012 133.97738999999999 157.92797 134.9316 L 98.57636399999998 169.18759 C 97.71757499999998 169.6647 96.85878999999998 169.95095 95.90458299999999 169.95095 C 94.95037699999999 169.95095 93.99617099999999 169.6647 93.23280599999998 169.18759 L 33.881192 134.9316 C 32.259042 133.97739 31.209414 132.1644 31.209414 130.25598 L 31.209414 61.743995 C 31.209414 59.835583 32.259042 58.022591 33.881192 57.068385 L 93.232806 22.812389 C 94.091591 22.335286 95.04579799999999 22.049024 95.904583 22.049024 M 95.904583 19.186405999999998 C 94.473274 19.186405999999998 93.041965 19.568088999999997 91.80149800000001 20.331453999999997 L 32.449883 54.58745 C 29.873526 56.018758999999996 28.346797 58.785956 28.346797 61.648573999999996 L 28.346797 130.16057 C 28.346797 133.11860000000001 29.873526 135.79038 32.449883 137.22169 L 91.80149800000001 171.47768 C 93.041965 172.24105 94.473274 172.62274 95.904583 172.62274 C 97.335892 172.62274 98.7672 172.24105 100.00768000000001 171.47768 L 159.35927 137.22169 C 161.93563 135.79038 163.46236000000002 133.02319 163.46236000000002 130.16057 L 163.46236000000002 61.64857400000001 C 163.46236000000002 58.69053600000001 161.93563000000003 56.01875900000001 159.35927 54.58745000000001 L 100.00768 20.331454 C 98.7672 19.568089 97.335892 19.186406 95.904583 19.186406 L 95.904583 19.186406 Z" xmlns:inkscape="http://www.inkscape.org/namespaces/inkscape" inkscape:connector-curvature="0" style="" fill="rgb(255, 255, 255)"/><g id="XMLID_228_" transform="matrix(0.95420602,0,0,0.95420602,5.4935566,-4.7641653)"><g id="XMLID_223_"><g id="XMLID_295_"><path d="M 103.6 69.6 C 103.6 69.1 103.19999999999999 68.6 102.6 68.6 L 93.19999999999999 68.6 L 83.79999999999998 68.6 C 83.29999999999998 68.6 82.79999999999998 69 82.79999999999998 69.6 C 82.79999999999998 73 83.29999999999998 84.69999999999999 88.29999999999998 90.39999999999999 C 88.49999999999999 90.6 88.69999999999999 90.69999999999999 88.99999999999999 90.69999999999999 L 97.39999999999999 90.69999999999999 C 97.69999999999999 90.69999999999999 97.89999999999999 90.6 98.1 90.39999999999999 C 103.1 84.8 103.6 73.1 103.6 69.6 Z M 96.19999999999999 87.8 L 90.29999999999998 87.8 C 89.99999999999999 87.8 89.79999999999998 87.7 89.59999999999998 87.5 C 86.19999999999997 83.5 85.79999999999998 75.5 85.69999999999997 72.7 C 85.69999999999997 72.2 86.09999999999998 71.7 86.69999999999997 71.7 L 93.29999999999997 71.7 L 99.89999999999996 71.7 C 100.39999999999996 71.7 100.89999999999996 72.10000000000001 100.89999999999996 72.7 C 100.89999999999996 75.5 100.39999999999996 83.4 96.99999999999996 87.5 C 96.69999999999996 87.7 96.49999999999996 87.8 96.19999999999996 87.8 Z" id="path8" xmlns:inkscape="http://www.inkscape.org/namespaces/inkscape" inkscape:connector-curvature="0" style="" fill="rgb(255, 255, 255)"/></g></g><path id="XMLID_225_" d="M 95.1 66.6 C 95.1 66.6 98.69999999999999 64.5 96.5 60.699999999999996 C 95.2 58.699999999999996 94.6 56.99999999999999 95.1 56.3 C 93.8 57.9 91.6 59.599999999999994 94 63.199999999999996 C 94.8 64.1 95.2 66 95.1 66.6 Z" xmlns:inkscape="http://www.inkscape.org/namespaces/inkscape" inkscape:connector-curvature="0" style="" fill="rgb(255, 255, 102)"/><path id="XMLID_224_" d="M 91.1 66.9 C 91.1 66.9 93.5 65.5 92 62.900000000000006 C 91.1 61.60000000000001 90.7 60.400000000000006 91.1 60.00000000000001 C 90.19999999999999 61.10000000000001 88.8 62.20000000000001 90.39999999999999 64.7 C 90.89999999999999 65.2 91.1 66.5 91.1 66.9 Z" xmlns:inkscape="http://www.inkscape.org/namespaces/inkscape" inkscape:connector-curvature="0" style="" fill="rgb(255, 255, 255)"/><path id="XMLID_227_" d="M 99.3 78.5 C 98.89999999999999 81.2 98.1 84.3 96.39999999999999 86.3 C 96.19999999999999 86.5 95.99999999999999 86.6 95.8 86.6 L 90.8 86.6 C 90.6 86.6 90.3 86.5 90.2 86.3 C 89 84.8 88.2 82.8 87.7 80.7 C 87.7 80.7 93.5 81.5 96.8 80.3 C 99.2 79.39999999999999 99.3 78.5 99.3 78.5 Z" xmlns:inkscape="http://www.inkscape.org/namespaces/inkscape" inkscape:connector-curvature="0" style="" fill="rgb(255, 255, 102)"/></g><rect id="XMLID_444_" x="35.169365" y="110.69476" width="121.66127" height="1.0496266" style="" fill="rgb(255, 255, 255)"/><path id="XMLID_446_" d="M 156.83062 74.816618 L 105.11265 74.816618 C 105.11265 75.1983 105.01725 75.484561 105.01725 75.86624400000001 L 156.83063 75.86624400000001 L 156.83063 74.816618 Z" xmlns:inkscape="http://www.inkscape.org/namespaces/inkscape" inkscape:connector-curvature="0" style="" fill="rgb(255, 255, 255)"/><path id="XMLID_448_" d="M 35.169364 74.816618 L 35.169364 75.86624400000001 L 83.929292 75.86624400000001 C 83.929292 75.48456100000001 83.833872 75.1983 83.833872 74.816618 L 35.169365 74.816618 Z" xmlns:inkscape="http://www.inkscape.org/namespaces/inkscape" inkscape:connector-curvature="0" style="" fill="rgb(255, 255, 255)"/><g transform="matrix(1 0 0 1 196.803 81.0946)"/><text controller-class="Text_box" transform="matrix(1 0 0 1 201.896 53.3634)" width="136.75" height="92" font-family="Bowlby One SC" font-size="30" font-style="regular" text-align="left" text-anchor="start" fill="rgb(0,0,0)" stroke="none" stroke-width="1.00" stroke-linecap="butt" stroke-linejoin="miter" opacity="1" style="" font-weight="" fill-opacity="1"><tspan x="0" y="30" newline=""><![CDATA[Mocha]]></tspan><tspan x="0" y="76"><![CDATA[SideBar]]></tspan></text><text controller-class="Text_box" transform="matrix(1 0 0 1 39.4708 82.5266)" width="117.875" height="23.3125" font-family="Krona One" font-size="9" font-style="regular" text-align="center" text-anchor="middle" fill="rgb(255,255,255)" stroke="none" stroke-width="1.00" stroke-linecap="butt" stroke-linejoin="miter" opacity="1" style="" font-weight="" letter-spacing="6" fill-opacity="1"><tspan x="58.9375" y="9" newline=""><![CDATA[MOCHA]]></tspan><tspan x="58.9375" y="21.125"><![CDATA[SIDE BAR]]></tspan></text></g><g transform="matrix(1,0,0,1,0,0)" name="Layer 1" jvs-layer-color="#ff7f00" class="jvs-layer"/></g></svg>