<?xml version="1.0" encoding="iso-8859-1"?>
<!-- Generator: Adobe Illustrator 19.0.0, SVG Export Plug-In . SVG Version: 6.00 Build 0)  -->
<svg version="1.1" id="Layer_1" xmlns="http://www.w3.org/2000/svg" xmlns:xlink="http://www.w3.org/1999/xlink" x="0px" y="0px"
	 viewBox="0 0 280.028 280.028" style="enable-background:new 0 0 280.028 280.028;" xml:space="preserve">
<g>
	<path style="fill:#324D5B;" d="M131.443,87.509l-0.052,165.505c0,6.099-6.169,11.061-13.074,11.061
		c-6.913,0-12.531-4.935-12.531-11.061c0-4.393-4.052-7.981-9.057-7.981c-4.988,0-9.04,3.588-9.04,7.981
		c0,7.228,3.177,14.019,8.97,19.129c5.793,5.084,13.476,7.885,21.658,7.885s15.865-2.8,21.658-7.911
		c5.723-5.04,8.891-11.744,8.935-18.867l0.035-0.018V87.509H131.443z"/>
	<path style="fill:#3DB39E;" d="M139.529,0C68.358,0,9.553,53.984,0.18,122.267c7.92-2.363,25.124-8.908,34.68-8.908
		c25.64,0,45.146,13.415,52.435,26.629l0.026,0.009l0.009-0.026c7.289-13.196,27.653-26.34,53.284-26.34
		c25.64,0,45.137,13.144,52.435,26.34l0.053,0.044l0.035-0.035c0,0,26.27-26.34,51.901-26.34c10.965,0,26.104,5.609,34.811,8.646
		C270.976,53.468,211.111,0,139.529,0z"/>
	<path style="fill:#318F7E;" d="M141.953,0.114l-0.341-0.009c-35.082,19.803-54.098,63.365-54.273,139.9l0.009-0.026
		c7.289-13.196,27.653-26.34,53.284-26.34c25.64,0,45.146,13.144,52.444,26.34C192.927,63.461,177.166,21.693,141.953,0.114z"/>
</g>
<g>
</g>
<g>
</g>
<g>
</g>
<g>
</g>
<g>
</g>
<g>
</g>
<g>
</g>
<g>
</g>
<g>
</g>
<g>
</g>
<g>
</g>
<g>
</g>
<g>
</g>
<g>
</g>
<g>
</g>
</svg>
