<?xml version="1.0" encoding="iso-8859-1"?>
<!-- Generator: Adobe Illustrator 19.0.0, SVG Export Plug-In . SVG Version: 6.00 Build 0)  -->
<svg version="1.1" id="Capa_1" xmlns="http://www.w3.org/2000/svg" xmlns:xlink="http://www.w3.org/1999/xlink" x="0px" y="0px"
	 viewBox="0 0 512 512" style="enable-background:new 0 0 512 512;" xml:space="preserve">
<linearGradient id="SVGID_1_" gradientUnits="userSpaceOnUse" x1="3.550656e-004" y1="258" x2="511.9996" y2="258" gradientTransform="matrix(1 0 0 -1 0 514)">
	<stop  offset="0" style="stop-color:#80D8FF"/>
	<stop  offset="1" style="stop-color:#EA80FC"/>
</linearGradient>
<path style="fill:url(#SVGID_1_);" d="M276.003,36.774V20c0-11.046-8.953-20-19.997-20c-11.044,0-19.997,8.954-19.997,20v16.774
	C105.448,46.799,0.044,155.801,0.044,292c0.207,0.894-2.153,15.308,11.079,21.901c6.789,3.381,14.907,2.634,20.961-1.936
	c53.582-40.432,145.499-43.118,203.925-5.54V457c0,8.271-6.728,15-14.998,15s-14.998-6.729-14.998-15v-31
	c0-11.046-8.953-20-19.997-20s-19.997,8.954-19.997,20v31c0,30.327,24.669,55,54.992,55s54.992-24.673,54.992-55V306.426
	c58.51-37.633,150.423-34.832,203.925,5.54c6.01,4.535,14.123,5.342,20.961,1.936c13.227-6.591,10.844-20.886,11.079-21.901
	C511.969,155.737,406.504,46.794,276.003,36.774z M256.006,271.724c-61.586-38.82-149.122-41.437-213.581-12.053
	C57.673,157.454,145.971,76,256.006,76c110.089,0,198.341,81.508,213.581,183.671C405.175,230.309,317.631,232.879,256.006,271.724z
	"/>
<g>
</g>
<g>
</g>
<g>
</g>
<g>
</g>
<g>
</g>
<g>
</g>
<g>
</g>
<g>
</g>
<g>
</g>
<g>
</g>
<g>
</g>
<g>
</g>
<g>
</g>
<g>
</g>
<g>
</g>
</svg>
