<svg width="580" height="400" xmlns="http://www.w3.org/2000/svg">
 <!-- Created with Method Draw - http://github.com/duopixel/Method-Draw/ -->

 <g>
  <title>Layer 1</title>
  <metadata id="svg_41">image/svg+xmlMocha Logo08-21-2015Dick DeLeon &lt;ddeleon@decipherinc.com&gt;CC BY-SA 4.0mochamochajsChristopher Hiller &lt;boneskull@boneskull.com&gt;</metadata>

  <metadata transform="matrix(1.9290125296439697,0,0,1.9290125296439697,0,0) " id="svg_85">image/svg+xmlMocha Logo08-21-2015Dick DeLeon &lt;ddeleon@decipherinc.com&gt;CC BY-SA 4.0mochamochajsChristopher Hiller &lt;boneskull@boneskull.com&gt;</metadata>

  <g id="svg_87">
   <path clip-rule="evenodd" fill="#1eb52d" fill-rule="evenodd" d="m432.231988,291.401895l-132.528601,76.572114c-5.706096,3.313195 -12.700676,3.313195 -18.406773,0l-132.52862,-76.572114c-5.706096,-3.313214 -9.203377,-9.387443 -9.203377,-15.829805l0,-153.144189c0,-6.626428 3.49728,-12.516591 9.203377,-15.829805l132.52862,-76.572094c5.706096,-3.313214 12.700676,-3.313214 18.406753,0l132.528601,76.572094c5.706096,3.313214 9.203396,9.387443 9.203396,15.829805l0,153.144189c-0.184028,6.442362 -3.681366,12.516591 -9.203396,15.829805l0.000019,0z" id="svg_84"/>
   <path fill="#ffffff" d="m289.815925,56.347649l0,0c1.840683,0 3.49728,0.552218 5.153897,1.47255l114.489999,66.080253c3.129167,1.840664 5.153878,5.337944 5.153878,9.01931l0,132.160468c0,3.681366 -2.02473,7.178647 -5.153878,9.01933l-114.489999,66.080234c-1.656617,0.920351 -3.313214,1.472531 -5.153897,1.472531c-1.840664,0 -3.681347,-0.55218 -5.153878,-1.472531l-114.490019,-66.080234c-3.129148,-1.840683 -5.153897,-5.337963 -5.153897,-9.01933l0,-132.160487c0,-3.681347 2.024749,-7.178627 5.153897,-9.01931l114.490019,-66.080234c1.656597,-0.920332 3.49728,-1.47255 5.153878,-1.47255m0,-5.522011c-2.761015,0 -5.522011,0.736266 -7.914893,2.208797l-114.490019,66.080253c-4.969811,2.761015 -7.914893,8.098978 -7.914893,13.620989l0,132.160506c0,5.706077 2.945081,10.859974 7.914893,13.620989l114.490019,66.080234c2.392882,1.47255 5.153878,2.208835 7.914893,2.208835c2.761015,0 5.52203,-0.736285 7.914931,-2.208835l114.489961,-66.080234c4.969831,-2.761015 7.914912,-8.098959 7.914912,-13.620989l0,-132.160506c0,-5.706077 -2.945081,-10.859974 -7.914912,-13.620989l-114.489961,-66.080253c-2.392901,-1.472531 -5.153916,-2.208797 -7.914931,-2.208797l0,0z" id="svg_83"/>
   <g transform="matrix(2.0983676994364413,0,0,1.812057552164532,-25.343730907685615,-6.371939567612587) " id="svg_76">
    <g id="svg_80">
     <g id="svg_81">
      <path fill="#ffffff" id="svg_82" d="m158.875694,74.621931c0,-0.5 -0.4,-1 -1,-1l-9.4,0l-9.4,0c-0.5,0 -1,0.4 -1,1c0,3.4 0.5,15.1 5.5,20.8c0.2,0.2 0.4,0.3 0.7,0.3l8.4,0c0.3,0 0.5,-0.1 0.7,-0.3c5,-5.6 5.5,-17.3 5.5,-20.8zm-7.4,18.2l-5.9,0c-0.3,0 -0.5,-0.1 -0.7,-0.3c-3.4,-4 -3.8,-12 -3.9,-14.8c0,-0.5 0.4,-1 1,-1l6.6,0l6.6,0c0.5,0 1,0.4 1,1c0,2.8 -0.5,10.7 -3.9,14.8c-0.3,0.2 -0.5,0.3 -0.8,0.3z"/>
     </g>
    </g>
    <path fill="#ffff66" d="m150.375694,71.621931c0,0 3.6,-2.1 1.4,-5.9c-1.3,-2 -1.9,-3.7 -1.4,-4.4c-1.3,1.6 -3.5,3.3 -1.1,6.9c0.8,0.9 1.2,2.8 1.1,3.4z" id="svg_79"/>
    <path fill="#ffffff" d="m146.375694,71.921931c0,0 2.4,-1.4 0.9,-4c-0.9,-1.3 -1.3,-2.5 -0.9,-2.9c-0.9,1.1 -2.3,2.2 -0.7,4.7c0.5,0.5 0.7,1.8 0.7,2.2z" id="svg_78"/>
    <path fill="#ffff66" d="m154.575694,83.521931c-0.4,2.7 -1.2,5.8 -2.9,7.8c-0.2,0.2 -0.4,0.3 -0.6,0.3l-5,0c-0.2,0 -0.5,-0.1 -0.6,-0.3c-1.2,-1.5 -2,-3.5 -2.5,-5.6c0,0 5.8,0.8 9.1,-0.4c2.4,-0.9 2.5,-1.8 2.5,-1.8z" id="svg_77"/>
   </g>
   <rect transform="matrix(1.9290125296439697,0,0,2.88562692718537,0,-112.4951412946939) " fill="#ffffff" height="1.049627" width="121.66127" y="123.227808" x="89.505346" id="svg_69"/>
   <path fill="#ffffff" d="m407.34302,158.13701l-99.764612,0c0,0.736266 -0.184028,1.288465 -0.184028,2.02473l99.948659,0l0,-2.02473l-0.000019,0z" id="svg_68"/>
   <path fill="#ffffff" d="m172.656925,158.63701l0,2.02473l94.058516,0c0,-0.736266 -0.184066,-1.288465 -0.184066,-2.02473l-93.87445,0z" id="svg_67"/>
   <ellipse ry="1.25" id="svg_89" cy="103.25" cx="202.750008" fill-opacity="null" stroke-opacity="null" stroke-width="null" stroke="null" fill="#4169e1"/>
   <text stroke="null" transform="matrix(1.2539682388305664,0,0,1.25,-46.41269564628601,-43) " xml:space="preserve" text-anchor="start" font-family="'Courier New', Courier, monospace" font-size="21" id="svg_90" y="184.3" x="236.579122" fill-opacity="null" stroke-opacity="null" stroke-width="0" fill="#ffffff">mocha</text>
   <text stroke="null" transform="matrix(1.0644761323928833,0,0,1.3333333730697632,-15.458152741193771,-65.1666744351387) " xml:space="preserve" text-anchor="start" font-family="'Courier New', Courier, monospace" font-size="21" id="svg_91" y="214.875" x="234.583147" fill-opacity="null" stroke-opacity="null" stroke-width="0" fill="#ffffff">Side Bar</text>
  </g>
 </g>
</svg>