<?xml version="1.0" encoding="iso-8859-1"?>
<!-- Generator: Adobe Illustrator 19.0.0, SVG Export Plug-In . SVG Version: 6.00 Build 0)  -->
<svg version="1.1" id="Layer_1" xmlns="http://www.w3.org/2000/svg" xmlns:xlink="http://www.w3.org/1999/xlink" x="0px" y="0px"
	 viewBox="0 0 251.555 251.555" style="enable-background:new 0 0 251.555 251.555;" xml:space="preserve">
<g>
	<path style="fill:#29f609;" d="M85.352,203.63c0,22.326,18.099,40.425,40.425,40.425l0,0c22.326,0,40.425-18.099,40.425-40.425
		v-77.242h-80.85V203.63z"/>
	<g>
		<path style="fill:#fffef1;" d="M186.085,0H65.47c-4.143,0-7.5,3.358-7.5,7.5v27.742c0,4.142,3.357,7.5,7.5,7.5h12.383
			c0,6.108,0,155.523,0,160.888c0,26.426,21.499,47.925,47.925,47.925s47.925-21.499,47.925-47.925c0-5.359,0-154.784,0-160.888
			h12.383c4.143,0,7.5-3.358,7.5-7.5V7.5C193.585,3.358,190.227,0,186.085,0z M158.702,203.63c0,18.155-14.77,32.925-32.925,32.925
			s-32.925-14.77-32.925-32.925v-69.742h65.85V203.63z M178.585,27.742c-13.043,0-21.775,0-34.625,0c-4.143,0-7.5,3.358-7.5,7.5
			s3.357,7.5,7.5,7.5h14.742v76.146h-65.85V35.242c0-4.142-3.357-7.5-7.5-7.5H72.97V15h105.615V27.742L178.585,27.742z"/>
		<path style="fill:#fffef1;" d="M109.293,161.221h9.334c4.143,0,7.5-3.358,7.5-7.5s-3.357-7.5-7.5-7.5h-9.334
			c-4.143,0-7.5,3.358-7.5,7.5C101.793,157.863,105.15,161.221,109.293,161.221z"/>
		<path style="fill:#fffef1;" d="M109.293,190.555h31.167c4.143,0,7.5-3.358,7.5-7.5s-3.357-7.5-7.5-7.5h-31.167
			c-4.143,0-7.5,3.358-7.5,7.5C101.793,187.197,105.15,190.555,109.293,190.555z"/>
		<path style="fill:#fffef1;" d="M130.444,204.888h-9.334c-4.143,0-7.5,3.358-7.5,7.5s3.357,7.5,7.5,7.5h9.334
			c4.143,0,7.5-3.358,7.5-7.5S134.587,204.888,130.444,204.888z"/>
	</g>
</g>
<g>
</g>
<g>
</g>
<g>
</g>
<g>
</g>
<g>
</g>
<g>
</g>
<g>
</g>
<g>
</g>
<g>
</g>
<g>
</g>
<g>
</g>
<g>
</g>
<g>
</g>
<g>
</g>
<g>
</g>
</svg>
